<mxfile host="app.diagrams.net" modified="2024-02-15T17:12:58.188Z" agent="Mozilla/5.0 (Windows NT 10.0; Win64; x64) AppleWebKit/537.36 (KHTML, like Gecko) Chrome/121.0.0.0 Safari/537.36" etag="djPHvbwXgecApcbL0XS0" version="23.1.2" type="device" pages="2">
  <diagram name="Page-1" id="j2iW94G4PSiPuUOoSySn">
    <mxGraphModel dx="2284" dy="738" grid="1" gridSize="10" guides="1" tooltips="1" connect="1" arrows="1" fold="1" page="1" pageScale="1" pageWidth="850" pageHeight="1100" math="0" shadow="0">
      <root>
        <mxCell id="0" />
        <mxCell id="1" parent="0" />
        <mxCell id="svkLnUFJbtoI1hwv0LTS-3" value="" style="rounded=0;whiteSpace=wrap;html=1;" vertex="1" parent="1">
          <mxGeometry x="520" y="180" width="120" height="380" as="geometry" />
        </mxCell>
        <mxCell id="svkLnUFJbtoI1hwv0LTS-28" style="edgeStyle=orthogonalEdgeStyle;rounded=0;orthogonalLoop=1;jettySize=auto;html=1;exitX=0.5;exitY=1;exitDx=0;exitDy=0;entryX=1;entryY=0.5;entryDx=0;entryDy=0;" edge="1" parent="1" source="svkLnUFJbtoI1hwv0LTS-4" target="svkLnUFJbtoI1hwv0LTS-23">
          <mxGeometry relative="1" as="geometry" />
        </mxCell>
        <mxCell id="svkLnUFJbtoI1hwv0LTS-6" style="edgeStyle=orthogonalEdgeStyle;rounded=0;orthogonalLoop=1;jettySize=auto;html=1;exitX=0.5;exitY=0.5;exitDx=0;exitDy=0;exitPerimeter=0;entryX=0;entryY=0.5;entryDx=0;entryDy=0;" edge="1" parent="1" source="svkLnUFJbtoI1hwv0LTS-5" target="svkLnUFJbtoI1hwv0LTS-11">
          <mxGeometry relative="1" as="geometry">
            <Array as="points">
              <mxPoint x="-50" y="350" />
              <mxPoint x="-50" y="230" />
            </Array>
          </mxGeometry>
        </mxCell>
        <mxCell id="svkLnUFJbtoI1hwv0LTS-5" value="Actor" style="shape=umlActor;verticalLabelPosition=bottom;verticalAlign=top;html=1;outlineConnect=0;" vertex="1" parent="1">
          <mxGeometry x="-140" y="320" width="30" height="60" as="geometry" />
        </mxCell>
        <mxCell id="svkLnUFJbtoI1hwv0LTS-7" value="Vertical Container" style="swimlane;whiteSpace=wrap;html=1;" vertex="1" parent="1">
          <mxGeometry x="-20" y="80" width="1000" height="500" as="geometry" />
        </mxCell>
        <mxCell id="svkLnUFJbtoI1hwv0LTS-2" value="" style="rounded=0;whiteSpace=wrap;html=1;" vertex="1" parent="svkLnUFJbtoI1hwv0LTS-7">
          <mxGeometry x="200" y="100" width="120" height="380" as="geometry" />
        </mxCell>
        <mxCell id="svkLnUFJbtoI1hwv0LTS-8" value="....." style="text;html=1;strokeColor=none;fillColor=none;align=center;verticalAlign=middle;whiteSpace=wrap;rounded=0;fontSize=20;fontStyle=1" vertex="1" parent="svkLnUFJbtoI1hwv0LTS-7">
          <mxGeometry x="830" y="430" width="60" height="30" as="geometry" />
        </mxCell>
        <mxCell id="svkLnUFJbtoI1hwv0LTS-9" value="....." style="text;html=1;strokeColor=none;fillColor=none;align=center;verticalAlign=middle;whiteSpace=wrap;rounded=0;fontStyle=1;fontSize=20;" vertex="1" parent="svkLnUFJbtoI1hwv0LTS-7">
          <mxGeometry x="830" y="110" width="60" height="30" as="geometry" />
        </mxCell>
        <mxCell id="svkLnUFJbtoI1hwv0LTS-1" value="HttpsRedirection" style="rounded=0;whiteSpace=wrap;html=1;" vertex="1" parent="svkLnUFJbtoI1hwv0LTS-7">
          <mxGeometry x="30" y="100" width="120" height="380" as="geometry" />
        </mxCell>
        <mxCell id="svkLnUFJbtoI1hwv0LTS-10" value="" style="rounded=0;whiteSpace=wrap;html=1;" vertex="1" parent="svkLnUFJbtoI1hwv0LTS-7">
          <mxGeometry x="370" y="100" width="120" height="380" as="geometry" />
        </mxCell>
        <mxCell id="svkLnUFJbtoI1hwv0LTS-24" style="edgeStyle=orthogonalEdgeStyle;rounded=0;orthogonalLoop=1;jettySize=auto;html=1;exitX=1;exitY=0.5;exitDx=0;exitDy=0;" edge="1" parent="svkLnUFJbtoI1hwv0LTS-7" source="svkLnUFJbtoI1hwv0LTS-11" target="svkLnUFJbtoI1hwv0LTS-16">
          <mxGeometry relative="1" as="geometry" />
        </mxCell>
        <mxCell id="svkLnUFJbtoI1hwv0LTS-11" value="Request" style="rounded=1;whiteSpace=wrap;html=1;fillColor=#dae8fc;strokeColor=#6c8ebf;" vertex="1" parent="svkLnUFJbtoI1hwv0LTS-7">
          <mxGeometry x="40" y="120" width="100" height="60" as="geometry" />
        </mxCell>
        <mxCell id="svkLnUFJbtoI1hwv0LTS-12" value="Response" style="rounded=1;whiteSpace=wrap;html=1;fillColor=#d5e8d4;strokeColor=#82b366;fillStyle=zigzag-line;" vertex="1" parent="svkLnUFJbtoI1hwv0LTS-7">
          <mxGeometry x="40" y="400" width="100" height="60" as="geometry" />
        </mxCell>
        <mxCell id="svkLnUFJbtoI1hwv0LTS-25" style="edgeStyle=orthogonalEdgeStyle;rounded=0;orthogonalLoop=1;jettySize=auto;html=1;exitX=1;exitY=0.5;exitDx=0;exitDy=0;" edge="1" parent="svkLnUFJbtoI1hwv0LTS-7" source="svkLnUFJbtoI1hwv0LTS-16" target="svkLnUFJbtoI1hwv0LTS-19">
          <mxGeometry relative="1" as="geometry" />
        </mxCell>
        <mxCell id="svkLnUFJbtoI1hwv0LTS-16" value="Request" style="rounded=1;whiteSpace=wrap;html=1;fillColor=#dae8fc;strokeColor=#6c8ebf;" vertex="1" parent="svkLnUFJbtoI1hwv0LTS-7">
          <mxGeometry x="210" y="120" width="100" height="60" as="geometry" />
        </mxCell>
        <mxCell id="svkLnUFJbtoI1hwv0LTS-31" style="edgeStyle=orthogonalEdgeStyle;rounded=0;orthogonalLoop=1;jettySize=auto;html=1;exitX=0;exitY=0.5;exitDx=0;exitDy=0;entryX=1;entryY=0.5;entryDx=0;entryDy=0;" edge="1" parent="svkLnUFJbtoI1hwv0LTS-7" source="svkLnUFJbtoI1hwv0LTS-17" target="svkLnUFJbtoI1hwv0LTS-12">
          <mxGeometry relative="1" as="geometry" />
        </mxCell>
        <mxCell id="svkLnUFJbtoI1hwv0LTS-17" value="Response" style="rounded=1;whiteSpace=wrap;html=1;fillColor=#d5e8d4;strokeColor=#82b366;fillStyle=zigzag-line;" vertex="1" parent="svkLnUFJbtoI1hwv0LTS-7">
          <mxGeometry x="210" y="400" width="100" height="60" as="geometry" />
        </mxCell>
        <mxCell id="svkLnUFJbtoI1hwv0LTS-15" style="edgeStyle=orthogonalEdgeStyle;rounded=0;orthogonalLoop=1;jettySize=auto;html=1;exitX=0.5;exitY=1;exitDx=0;exitDy=0;fillColor=#f8cecc;strokeColor=#b85450;" edge="1" parent="svkLnUFJbtoI1hwv0LTS-7" source="svkLnUFJbtoI1hwv0LTS-16" target="svkLnUFJbtoI1hwv0LTS-17">
          <mxGeometry relative="1" as="geometry" />
        </mxCell>
        <mxCell id="svkLnUFJbtoI1hwv0LTS-19" value="Request" style="rounded=1;whiteSpace=wrap;html=1;fillColor=#dae8fc;strokeColor=#6c8ebf;" vertex="1" parent="svkLnUFJbtoI1hwv0LTS-7">
          <mxGeometry x="380" y="120" width="100" height="60" as="geometry" />
        </mxCell>
        <mxCell id="svkLnUFJbtoI1hwv0LTS-30" style="edgeStyle=orthogonalEdgeStyle;rounded=0;orthogonalLoop=1;jettySize=auto;html=1;exitX=0;exitY=0.5;exitDx=0;exitDy=0;" edge="1" parent="svkLnUFJbtoI1hwv0LTS-7" source="svkLnUFJbtoI1hwv0LTS-20" target="svkLnUFJbtoI1hwv0LTS-17">
          <mxGeometry relative="1" as="geometry" />
        </mxCell>
        <mxCell id="svkLnUFJbtoI1hwv0LTS-20" value="Response" style="rounded=1;whiteSpace=wrap;html=1;fillColor=#d5e8d4;strokeColor=#82b366;fillStyle=zigzag-line;" vertex="1" parent="svkLnUFJbtoI1hwv0LTS-7">
          <mxGeometry x="380" y="400" width="100" height="60" as="geometry" />
        </mxCell>
        <mxCell id="svkLnUFJbtoI1hwv0LTS-18" style="edgeStyle=orthogonalEdgeStyle;rounded=0;orthogonalLoop=1;jettySize=auto;html=1;exitX=0.5;exitY=1;exitDx=0;exitDy=0;fillColor=#f8cecc;strokeColor=#b85450;" edge="1" parent="svkLnUFJbtoI1hwv0LTS-7" source="svkLnUFJbtoI1hwv0LTS-19" target="svkLnUFJbtoI1hwv0LTS-20">
          <mxGeometry relative="1" as="geometry" />
        </mxCell>
        <mxCell id="svkLnUFJbtoI1hwv0LTS-32" style="edgeStyle=orthogonalEdgeStyle;rounded=0;orthogonalLoop=1;jettySize=auto;html=1;exitX=0.25;exitY=0;exitDx=0;exitDy=0;entryX=0;entryY=0.5;entryDx=0;entryDy=0;" edge="1" parent="svkLnUFJbtoI1hwv0LTS-7" source="svkLnUFJbtoI1hwv0LTS-11" target="svkLnUFJbtoI1hwv0LTS-11">
          <mxGeometry relative="1" as="geometry">
            <Array as="points">
              <mxPoint x="65" y="60" />
              <mxPoint x="-30" y="60" />
              <mxPoint x="-30" y="150" />
            </Array>
          </mxGeometry>
        </mxCell>
        <mxCell id="svkLnUFJbtoI1hwv0LTS-4" value="Controller" style="shape=process;whiteSpace=wrap;html=1;backgroundOutline=1;" vertex="1" parent="svkLnUFJbtoI1hwv0LTS-7">
          <mxGeometry x="900" y="250" width="120" height="60" as="geometry" />
        </mxCell>
        <mxCell id="svkLnUFJbtoI1hwv0LTS-33" value="" style="rounded=0;whiteSpace=wrap;html=1;" vertex="1" parent="svkLnUFJbtoI1hwv0LTS-7">
          <mxGeometry x="700" y="100" width="120" height="380" as="geometry" />
        </mxCell>
        <mxCell id="svkLnUFJbtoI1hwv0LTS-35" value="Request" style="rounded=1;whiteSpace=wrap;html=1;fillColor=#dae8fc;strokeColor=#6c8ebf;" vertex="1" parent="svkLnUFJbtoI1hwv0LTS-7">
          <mxGeometry x="710" y="120" width="100" height="60" as="geometry" />
        </mxCell>
        <mxCell id="svkLnUFJbtoI1hwv0LTS-36" value="Response" style="rounded=1;whiteSpace=wrap;html=1;fillColor=#d5e8d4;strokeColor=#82b366;fillStyle=zigzag-line;" vertex="1" parent="svkLnUFJbtoI1hwv0LTS-7">
          <mxGeometry x="710" y="400" width="100" height="60" as="geometry" />
        </mxCell>
        <mxCell id="svkLnUFJbtoI1hwv0LTS-34" style="edgeStyle=orthogonalEdgeStyle;rounded=0;orthogonalLoop=1;jettySize=auto;html=1;exitX=0.5;exitY=1;exitDx=0;exitDy=0;fillColor=#f8cecc;strokeColor=#b85450;" edge="1" parent="svkLnUFJbtoI1hwv0LTS-7" source="svkLnUFJbtoI1hwv0LTS-35" target="svkLnUFJbtoI1hwv0LTS-36">
          <mxGeometry relative="1" as="geometry" />
        </mxCell>
        <mxCell id="svkLnUFJbtoI1hwv0LTS-37" value="Routing" style="text;html=1;strokeColor=none;fillColor=none;align=center;verticalAlign=middle;whiteSpace=wrap;rounded=0;" vertex="1" parent="svkLnUFJbtoI1hwv0LTS-7">
          <mxGeometry x="230" y="70" width="60" height="30" as="geometry" />
        </mxCell>
        <mxCell id="svkLnUFJbtoI1hwv0LTS-38" value="Cors" style="text;html=1;strokeColor=none;fillColor=none;align=center;verticalAlign=middle;whiteSpace=wrap;rounded=0;" vertex="1" parent="svkLnUFJbtoI1hwv0LTS-7">
          <mxGeometry x="400" y="70" width="60" height="30" as="geometry" />
        </mxCell>
        <mxCell id="svkLnUFJbtoI1hwv0LTS-39" value="Authentication" style="text;html=1;strokeColor=none;fillColor=none;align=center;verticalAlign=middle;whiteSpace=wrap;rounded=0;" vertex="1" parent="svkLnUFJbtoI1hwv0LTS-7">
          <mxGeometry x="570" y="70" width="60" height="30" as="geometry" />
        </mxCell>
        <mxCell id="svkLnUFJbtoI1hwv0LTS-40" value="Authorization" style="text;html=1;strokeColor=none;fillColor=none;align=center;verticalAlign=middle;whiteSpace=wrap;rounded=0;" vertex="1" parent="svkLnUFJbtoI1hwv0LTS-7">
          <mxGeometry x="730" y="70" width="60" height="30" as="geometry" />
        </mxCell>
        <mxCell id="svkLnUFJbtoI1hwv0LTS-14" style="edgeStyle=orthogonalEdgeStyle;rounded=0;orthogonalLoop=1;jettySize=auto;html=1;exitX=0;exitY=0.5;exitDx=0;exitDy=0;entryX=0.5;entryY=0.5;entryDx=0;entryDy=0;entryPerimeter=0;" edge="1" parent="1" source="svkLnUFJbtoI1hwv0LTS-12" target="svkLnUFJbtoI1hwv0LTS-5">
          <mxGeometry relative="1" as="geometry">
            <Array as="points">
              <mxPoint x="-50" y="510" />
              <mxPoint x="-50" y="350" />
            </Array>
          </mxGeometry>
        </mxCell>
        <mxCell id="svkLnUFJbtoI1hwv0LTS-21" style="edgeStyle=orthogonalEdgeStyle;rounded=0;orthogonalLoop=1;jettySize=auto;html=1;exitX=0.5;exitY=1;exitDx=0;exitDy=0;fillColor=#f8cecc;strokeColor=#b85450;" edge="1" parent="1" source="svkLnUFJbtoI1hwv0LTS-22" target="svkLnUFJbtoI1hwv0LTS-23">
          <mxGeometry relative="1" as="geometry" />
        </mxCell>
        <mxCell id="svkLnUFJbtoI1hwv0LTS-27" style="edgeStyle=orthogonalEdgeStyle;rounded=0;orthogonalLoop=1;jettySize=auto;html=1;exitX=1;exitY=0.5;exitDx=0;exitDy=0;entryX=0.5;entryY=0;entryDx=0;entryDy=0;" edge="1" parent="1" source="svkLnUFJbtoI1hwv0LTS-22" target="svkLnUFJbtoI1hwv0LTS-4">
          <mxGeometry relative="1" as="geometry" />
        </mxCell>
        <mxCell id="svkLnUFJbtoI1hwv0LTS-22" value="Request" style="rounded=1;whiteSpace=wrap;html=1;fillColor=#dae8fc;strokeColor=#6c8ebf;" vertex="1" parent="1">
          <mxGeometry x="530" y="200" width="100" height="60" as="geometry" />
        </mxCell>
        <mxCell id="svkLnUFJbtoI1hwv0LTS-29" style="edgeStyle=orthogonalEdgeStyle;rounded=0;orthogonalLoop=1;jettySize=auto;html=1;exitX=0;exitY=0.5;exitDx=0;exitDy=0;entryX=1;entryY=0.5;entryDx=0;entryDy=0;" edge="1" parent="1" source="svkLnUFJbtoI1hwv0LTS-23" target="svkLnUFJbtoI1hwv0LTS-20">
          <mxGeometry relative="1" as="geometry" />
        </mxCell>
        <mxCell id="svkLnUFJbtoI1hwv0LTS-23" value="Response" style="rounded=1;whiteSpace=wrap;html=1;fillColor=#d5e8d4;strokeColor=#82b366;fillStyle=zigzag-line;" vertex="1" parent="1">
          <mxGeometry x="530" y="480" width="100" height="60" as="geometry" />
        </mxCell>
        <mxCell id="svkLnUFJbtoI1hwv0LTS-26" style="edgeStyle=orthogonalEdgeStyle;rounded=0;orthogonalLoop=1;jettySize=auto;html=1;exitX=1;exitY=0.5;exitDx=0;exitDy=0;" edge="1" parent="1" source="svkLnUFJbtoI1hwv0LTS-19" target="svkLnUFJbtoI1hwv0LTS-22">
          <mxGeometry relative="1" as="geometry" />
        </mxCell>
      </root>
    </mxGraphModel>
  </diagram>
  <diagram id="dIcC52s0uIIwvhH7FdLy" name="Page-2">
    <mxGraphModel dx="1434" dy="738" grid="1" gridSize="10" guides="1" tooltips="1" connect="1" arrows="1" fold="1" page="1" pageScale="1" pageWidth="850" pageHeight="1100" math="0" shadow="0">
      <root>
        <mxCell id="0" />
        <mxCell id="1" parent="0" />
        <mxCell id="XlsHnpQEBw0l4mzVUR5N-2" value="" style="whiteSpace=wrap;html=1;aspect=fixed;" vertex="1" parent="1">
          <mxGeometry x="345" y="210" width="280" height="280" as="geometry" />
        </mxCell>
        <mxCell id="XlsHnpQEBw0l4mzVUR5N-1" value="binary code exe" style="whiteSpace=wrap;html=1;aspect=fixed;" vertex="1" parent="1">
          <mxGeometry x="410" y="260" width="85" height="85" as="geometry" />
        </mxCell>
        <mxCell id="XlsHnpQEBw0l4mzVUR5N-5" style="edgeStyle=orthogonalEdgeStyle;rounded=0;orthogonalLoop=1;jettySize=auto;html=1;exitX=0;exitY=0.25;exitDx=0;exitDy=0;entryX=0;entryY=0.5;entryDx=0;entryDy=0;" edge="1" parent="1" source="XlsHnpQEBw0l4mzVUR5N-3" target="XlsHnpQEBw0l4mzVUR5N-4">
          <mxGeometry relative="1" as="geometry" />
        </mxCell>
        <mxCell id="XlsHnpQEBw0l4mzVUR5N-3" value="jump" style="text;html=1;strokeColor=none;fillColor=none;align=center;verticalAlign=middle;whiteSpace=wrap;rounded=0;" vertex="1" parent="1">
          <mxGeometry x="410" y="230" width="60" height="30" as="geometry" />
        </mxCell>
        <mxCell id="XlsHnpQEBw0l4mzVUR5N-4" value="virus" style="rounded=0;whiteSpace=wrap;html=1;" vertex="1" parent="1">
          <mxGeometry x="410" y="350" width="120" height="60" as="geometry" />
        </mxCell>
        <mxCell id="XlsHnpQEBw0l4mzVUR5N-6" value="jump" style="text;html=1;strokeColor=none;fillColor=none;align=center;verticalAlign=middle;whiteSpace=wrap;rounded=0;" vertex="1" parent="1">
          <mxGeometry x="410" y="410" width="60" height="30" as="geometry" />
        </mxCell>
        <mxCell id="XlsHnpQEBw0l4mzVUR5N-7" style="edgeStyle=orthogonalEdgeStyle;rounded=0;orthogonalLoop=1;jettySize=auto;html=1;exitX=0;exitY=0.5;exitDx=0;exitDy=0;entryX=-0.012;entryY=0.165;entryDx=0;entryDy=0;entryPerimeter=0;" edge="1" parent="1" source="XlsHnpQEBw0l4mzVUR5N-6" target="XlsHnpQEBw0l4mzVUR5N-1">
          <mxGeometry relative="1" as="geometry">
            <Array as="points">
              <mxPoint x="370" y="425" />
              <mxPoint x="370" y="274" />
            </Array>
          </mxGeometry>
        </mxCell>
        <mxCell id="XlsHnpQEBw0l4mzVUR5N-8" value="" style="whiteSpace=wrap;html=1;aspect=fixed;" vertex="1" parent="1">
          <mxGeometry x="880" y="200" width="290" height="290" as="geometry" />
        </mxCell>
        <mxCell id="XlsHnpQEBw0l4mzVUR5N-9" value="Payload" style="shape=process;whiteSpace=wrap;html=1;backgroundOutline=1;" vertex="1" parent="1">
          <mxGeometry x="940" y="300" width="120" height="60" as="geometry" />
        </mxCell>
        <mxCell id="XlsHnpQEBw0l4mzVUR5N-10" value="Authz" style="text;html=1;strokeColor=none;fillColor=none;align=center;verticalAlign=middle;whiteSpace=wrap;rounded=0;" vertex="1" parent="1">
          <mxGeometry x="940" y="270" width="60" height="30" as="geometry" />
        </mxCell>
        <mxCell id="XlsHnpQEBw0l4mzVUR5N-11" value="http DELETE endpoint X" style="shape=process;whiteSpace=wrap;html=1;backgroundOutline=1;" vertex="1" parent="1">
          <mxGeometry x="940" y="360" width="120" height="60" as="geometry" />
        </mxCell>
      </root>
    </mxGraphModel>
  </diagram>
</mxfile>
